spectral-extrabold.ufo
<glyph name="M" format="2">
  <advance width="1019"/>
  <unicode hex="004D"/>
  <anchor x="461.0" y="0.0" name="bottom"/>
  <outline>
    <contour>
      <point x="30.0" y="0.0" type="line"/>
      <point x="281.0" y="0.0" type="line"/>
      <point x="281.0" y="16.0" type="line"/>
      <point x="190" y="57" type="line"/>
      <point x="206" y="642" type="line"/>
      <point x="141" y="642" type="line"/>
      <point x="119.0" y="58.0" type="line"/>
      <point x="30.0" y="16.0" type="line"/>
    </contour>
    <contour>
      <point x="429" y="-5" type="line"/>
      <point x="493" y="-5" type="line"/>
      <point x="746" y="595" type="line"/>
      <point x="825" y="595" type="line"/>
      <point x="981" y="644" type="line"/>
      <point x="981" y="660" type="line"/>
      <point x="700" y="660" type="line"/>
      <point x="502" y="189" type="line"/>
      <point x="543" y="189" type="line"/>
      <point x="339" y="660" type="line"/>
      <point x="51" y="660" type="line"/>
      <point x="51" y="644" type="line"/>
      <point x="157" y="595" type="line"/>
      <point x="171" y="595" type="line"/>
    </contour>
    <contour>
      <point x="639.0" y="0.0" type="line"/>
      <point x="989.0" y="0.0" type="line"/>
      <point x="989.0" y="16.0" type="line"/>
      <point x="909.0" y="58.0" type="line"/>
      <point x="891" y="642" type="line"/>
      <point x="711" y="642" type="line"/>
      <point x="723.0" y="57.0" type="line"/>
      <point x="639.0" y="16.0" type="line"/>
    </contour>
  </outline>
</glyph>
<glyph name="O" format="2">
  <advance width="777"/>
  <unicode hex="004F"/>
  <anchor x="389" y="710" name="top"/>
  <anchor x="389" y="0" name="bottom"/>
  <anchor x="423" y="0" name="right"/>
  <outline>
    <contour>
      <point x="388" y="-10" type="curve" smooth="yes"/>
      <point x="591" y="-10"/>
      <point x="742" y="134"/>
      <point x="742" y="330" type="curve" smooth="yes"/>
      <point x="742" y="526"/>
      <point x="591" y="670"/>
      <point x="388" y="670" type="curve" smooth="yes"/>
      <point x="186" y="670"/>
      <point x="35" y="526"/>
      <point x="35" y="330" type="curve" smooth="yes"/>
      <point x="35" y="134"/>
      <point x="186" y="-10"/>
    </contour>
    <contour>
      <point x="401" y="43" type="curve" smooth="yes"/>
      <point x="309.0" y="43.0"/>
      <point x="235.0" y="169.0"/>
      <point x="235" y="361" type="curve" smooth="yes"/>
      <point x="235.0" y="518.0"/>
      <point x="296.0" y="618.0"/>
      <point x="377" y="618" type="curve" smooth="yes"/>
      <point x="470" y="618"/>
      <point x="542" y="493"/>
      <point x="542" y="301" type="curve" smooth="yes"/>
      <point x="542" y="144"/>
      <point x="485" y="43"/>
    </contour>
  </outline>
</glyph>
<glyph name="U" format="2">
  <advance width="856"/>
  <unicode hex="0055"/>
  <anchor x="483.0" y="710.0" name="top"/>
  <anchor x="468" y="0" name="bottom"/>
  <anchor x="479" y="0" name="right"/>
  <outline>
    <contour>
      <point x="435" y="-10" type="curve" smooth="yes"/>
      <point x="617.75" y="-10.0"/>
      <point x="736" y="66"/>
      <point x="736" y="302" type="curve" smooth="yes"/>
      <point x="736" y="603" type="line"/>
      <point x="826" y="644" type="line"/>
      <point x="826" y="660" type="line"/>
      <point x="576" y="660" type="line"/>
      <point x="576" y="644" type="line"/>
      <point x="666" y="604" type="line"/>
      <point x="666" y="255" type="line" smooth="yes"/>
      <point x="666" y="124"/>
      <point x="586" y="76"/>
      <point x="498" y="76" type="curve" smooth="yes"/>
      <point x="395" y="76"/>
      <point x="310" y="127"/>
      <point x="310" y="290" type="curve" smooth="yes"/>
      <point x="310" y="602" type="line"/>
      <point x="400" y="644" type="line"/>
      <point x="400" y="660" type="line"/>
      <point x="30" y="660" type="line"/>
      <point x="30" y="644" type="line"/>
      <point x="120" y="602" type="line"/>
      <point x="120" y="302" type="line" smooth="yes"/>
      <point x="120" y="66"/>
      <point x="244.772727273" y="-10.0"/>
    </contour>
  </outline>
</glyph>
<glyph name="l" format="2">
  <advance width="346"/>
  <unicode hex="006C"/>
  <anchor x="179" y="765" name="top"/>
  <anchor x="389" y="740" name="right"/>
  <anchor x="397" y="300" name="mid"/>
  <anchor x="179" y="0.0" name="bottom"/>
  <outline>
    <contour>
      <point x="20" y="0" type="line"/>
      <point x="326" y="0" type="line"/>
      <point x="326" y="16" type="line"/>
      <point x="269" y="48" type="line"/>
      <point x="269" y="750" type="line"/>
      <point x="253" y="750" type="line"/>
      <point x="23" y="695" type="line"/>
      <point x="23" y="679" type="line"/>
      <point x="89" y="636" type="line"/>
      <point x="89" y="48" type="line"/>
      <point x="20" y="16" type="line"/>
    </contour>
  </outline>
</glyph>
<glyph name="cent" format="2">
  <advance width="600"/>
  <unicode hex="00A2"/>
  <outline>
    <contour>
      <point x="293" y="90" type="curve" smooth="yes"/>
      <point x="393.0" y="90.0"/>
      <point x="462.0" y="144.0"/>
      <point x="500" y="217" type="curve"/>
      <point x="500" y="260" type="line"/>
      <point x="497" y="260" type="line"/>
      <point x="457.0" y="233.0"/>
      <point x="408.0" y="221.0"/>
      <point x="371" y="221" type="curve" smooth="yes"/>
      <point x="296" y="221"/>
      <point x="244" y="262"/>
      <point x="244" y="357" type="curve" smooth="yes"/>
      <point x="244.0" y="456.0"/>
      <point x="267.0" y="526.0"/>
      <point x="321" y="526" type="curve" smooth="yes"/>
      <point x="359.0" y="526.0"/>
      <point x="367.0" y="502.0"/>
      <point x="393" y="467" type="curve" smooth="yes"/>
      <point x="426" y="422" type="line"/>
      <point x="433" y="422" type="line"/>
      <point x="486" y="467" type="line" smooth="yes"/>
      <point x="496" y="476"/>
      <point x="498" y="481"/>
      <point x="498" y="491" type="curve" smooth="yes"/>
      <point x="498" y="499"/>
      <point x="494" y="508"/>
      <point x="483" y="521" type="curve" smooth="yes"/>
      <point x="456" y="551"/>
      <point x="404" y="570"/>
      <point x="337" y="570" type="curve" smooth="yes"/>
      <point x="173" y="570"/>
      <point x="72" y="462"/>
      <point x="72" y="309" type="curve" smooth="yes"/>
      <point x="72" y="177"/>
      <point x="164" y="90"/>
    </contour>
    <contour>
      <point x="209" y="26" type="line"/>
      <point x="255" y="26" type="line"/>
      <point x="405" y="635" type="line"/>
      <point x="359" y="635" type="line"/>
    </contour>
  </outline>
</glyph>
<glyph name="eogonek" format="2">
  <advance width="503"/>
  <unicode hex="0119"/>
  <outline>
    <contour>
      <point x="261.0" y="-10.0" type="curve" smooth="yes"/>
      <point x="318.6" y="-10.0"/>
      <point x="367" y="7"/>
      <point x="411" y="41" type="curve"/>
      <point x="403" y="41" type="line"/>
      <point x="325" y="-31"/>
      <point x="276.0" y="-89.6011235955"/>
      <point x="276" y="-148" type="curve" smooth="yes"/>
      <point x="276" y="-204"/>
      <point x="315" y="-240"/>
      <point x="377" y="-240" type="curve" smooth="yes"/>
      <point x="420" y="-240"/>
      <point x="454" y="-221"/>
      <point x="470" y="-188" type="curve"/>
      <point x="470" y="-165" type="line"/>
      <point x="466" y="-165" type="line"/>
      <point x="455" y="-177"/>
      <point x="436" y="-183"/>
      <point x="420" y="-183" type="curve" smooth="yes"/>
      <point x="384" y="-183"/>
      <point x="367" y="-162"/>
      <point x="367" y="-125" type="curve" smooth="yes"/>
      <point x="367.0" y="-48.6134020619"/>
      <point x="411.0" y="23.0"/>
      <point x="445.0" y="78.0" type="curve"/>
      <point x="456.0" y="93.0"/>
      <point x="465.492054296" y="107.315676212"/>
      <point x="473.0" y="124.0" type="curve"/>
      <point x="473.0" y="145.0" type="line"/>
      <point x="470.0" y="145.0" type="line"/>
      <point x="428.0" y="124.0"/>
      <point x="385.0" y="119.0"/>
      <point x="346.0" y="119.0" type="curve" smooth="yes"/>
      <point x="248.0" y="119.0"/>
      <point x="202.0" y="171.0"/>
      <point x="202.0" y="247.0" type="curve" smooth="yes"/>
      <point x="202.0" y="359.0"/>
      <point x="227.0" y="425.0"/>
      <point x="271.0" y="425.0" type="curve" smooth="yes"/>
      <point x="310.0" y="425.0"/>
      <point x="333.0" y="396.0"/>
      <point x="339.0" y="294.0" type="curve"/>
      <point x="395.0" y="306.0" type="line"/>
      <point x="138.0" y="306.0" type="line"/>
      <point x="138.0" y="262.0" type="line"/>
      <point x="469.0" y="262.0" type="line"/>
      <point x="472.0" y="267.0" type="line"/>
      <point x="470.0" y="395.0"/>
      <point x="409.0" y="470.0"/>
      <point x="299.0" y="470.0" type="curve" smooth="yes"/>
      <point x="147.0" y="470.0"/>
      <point x="30.0" y="362.0"/>
      <point x="30.0" y="209.0" type="curve" smooth="yes"/>
      <point x="30.0" y="77.0"/>
      <point x="118.0" y="-10.0"/>
    </contour>
  </outline>
</glyph>
<glyph name="gravecomb" format="2">
  <unicode hex="0300"/>
  <anchor x="90" y="510" name="_top"/>
  <outline>
    <contour>
      <point x="75" y="530" type="line"/>
      <point x="104" y="530" type="line"/>
      <point x="24" y="707" type="line"/>
      <point x="-104" y="707" type="line"/>
      <point x="-104" y="679"/>
      <point x="-93" y="659"/>
      <point x="-60" y="634" type="curve" smooth="yes"/>
    </contour>
  </outline>
</glyph>
<glyph name="dotaccentcomb" format="2">
  <unicode hex="0307"/>
  <anchor x="1" y="510" name="_top"/>
  <outline>
    <contour>
      <point x="0" y="537" type="curve" smooth="yes"/>
      <point x="47" y="537"/>
      <point x="81" y="571"/>
      <point x="81" y="618" type="curve" smooth="yes"/>
      <point x="81" y="665"/>
      <point x="47" y="699"/>
      <point x="0" y="699" type="curve" smooth="yes"/>
      <point x="-47" y="699"/>
      <point x="-81" y="665"/>
      <point x="-81" y="618" type="curve" smooth="yes"/>
      <point x="-81" y="571"/>
      <point x="-47" y="537"/>
    </contour>
  </outline>
</glyph>
<glyph name="hungarumlautcomb" format="2">
  <unicode hex="030B"/>
  <anchor x="-57" y="510" name="_top"/>
  <outline>
    <contour>
      <point x="-156" y="530" type="line"/>
      <point x="-127" y="530" type="line"/>
      <point x="-33" y="644" type="line" smooth="yes"/>
      <point x="-14" y="668"/>
      <point x="-14" y="687"/>
      <point x="-21" y="707" type="curve"/>
      <point x="-115" y="707" type="line"/>
    </contour>
    <contour>
      <point x="-4" y="530" type="line"/>
      <point x="25" y="530" type="line"/>
      <point x="139" y="644" type="line" smooth="yes"/>
      <point x="162" y="667"/>
      <point x="158" y="687"/>
      <point x="151" y="707" type="curve"/>
      <point x="57" y="707" type="line"/>
    </contour>
  </outline>
</glyph>
<glyph name="macronbelowcomb" format="2">
  <unicode hex="0331"/>
  <anchor x="0" y="0" name="_bottom"/>
  <outline>
    <contour>
      <point x="-153" y="-182" type="line"/>
      <point x="153" y="-182" type="line"/>
      <point x="153" y="-116" type="line"/>
      <point x="-153" y="-116" type="line"/>
    </contour>
  </outline>
</glyph>
<glyph name="uni0402" format="2">
  <advance width="842.0"/>
  <unicode hex="0402"/>
  <outline>
    <contour>
      <point x="134" y="0" type="line"/>
      <point x="521" y="0" type="line"/>
      <point x="521" y="16" type="line"/>
      <point x="434" y="58" type="line"/>
      <point x="434" y="605" type="line"/>
      <point x="574" y="605" type="line"/>
      <point x="662" y="479" type="line"/>
      <point x="678" y="479" type="line"/>
      <point x="678" y="660" type="line"/>
      <point x="20" y="660" type="line"/>
      <point x="20" y="459" type="line"/>
      <point x="36" y="459" type="line"/>
      <point x="124" y="605" type="line"/>
      <point x="244" y="605" type="line"/>
      <point x="244" y="58" type="line"/>
      <point x="134" y="16" type="line"/>
    </contour>
    <contour>
      <point x="802" y="212" type="curve" smooth="yes"/>
      <point x="802.0" y="322.12359550561797"/>
      <point x="754.0" y="410.0"/>
      <point x="621" y="410" type="curve" smooth="yes"/>
      <point x="526" y="410"/>
      <point x="463" y="370"/>
      <point x="429" y="336" type="curve"/>
      <point x="429" y="279" type="line"/>
      <point x="445" y="294"/>
      <point x="474" y="306"/>
      <point x="516" y="306" type="curve" smooth="yes"/>
      <point x="589.0" y="306.0"/>
      <point x="612" y="259"/>
      <point x="612" y="186" type="curve" smooth="yes"/>
      <point x="612" y="49" type="line" smooth="yes"/>
      <point x="612" y="-50"/>
      <point x="592" y="-63"/>
      <point x="560" y="-63" type="curve" smooth="yes"/>
      <point x="547" y="-63"/>
      <point x="539" y="-61"/>
      <point x="522" y="-56" type="curve"/>
      <point x="512" y="-56" type="line"/>
      <point x="504" y="-91"/>
      <point x="497" y="-126"/>
      <point x="497" y="-144" type="curve" smooth="yes"/>
      <point x="497" y="-164"/>
      <point x="508" y="-173"/>
      <point x="528" y="-173" type="curve" smooth="yes"/>
      <point x="578.4962406015038" y="-173.0"/>
      <point x="632.8050304098045" y="-133.40408926847962"/>
      <point x="674" y="-85" type="curve" smooth="yes"/>
      <point x="715.5760459007851" y="-35.68887579209208"/>
      <point x="802.0" y="71.05084745762713"/>
    </contour>
  </outline>
</glyph>
<glyph name="uni0409" format="2">
  <advance width="1010.0"/>
  <unicode hex="0409"/>
  <outline>
    <contour>
      <point x="206" y="605" type="line"/>
      <point x="512" y="605" type="line"/>
      <point x="512" y="660" type="line"/>
      <point x="206" y="660" type="line"/>
    </contour>
    <contour>
      <point x="245" y="523" type="curve" smooth="yes"/>
      <point x="245" y="660" type="line"/>
      <point x="87" y="660" type="line"/>
      <point x="87" y="644" type="line"/>
      <point x="175" y="602" type="line"/>
      <point x="175" y="520" type="line" smooth="yes"/>
      <point x="175" y="208"/>
      <point x="115" y="116"/>
      <point x="20" y="116" type="curve" smooth="yes"/>
      <point x="11" y="116" type="line"/>
      <point x="5" y="110" type="line"/>
      <point x="5" y="19" type="line" smooth="yes"/>
      <point x="5" y="-3"/>
      <point x="9" y="-10"/>
      <point x="39" y="-10" type="curve" smooth="yes"/>
      <point x="85" y="-10"/>
      <point x="153" y="2"/>
      <point x="201" y="101" type="curve" smooth="yes"/>
      <point x="221" y="142"/>
      <point x="245" y="246"/>
    </contour>
    <contour>
      <point x="691" y="0" type="line" smooth="yes"/>
      <point x="863" y="0"/>
      <point x="990" y="77"/>
      <point x="990" y="204" type="curve" smooth="yes"/>
      <point x="990" y="327"/>
      <point x="863" y="397"/>
      <point x="691" y="397" type="curve" smooth="yes"/>
      <point x="510" y="397" type="line"/>
      <point x="510" y="342" type="line"/>
      <point x="643" y="342" type="line" smooth="yes"/>
      <point x="743" y="342"/>
      <point x="799" y="295"/>
      <point x="799" y="201" type="curve" smooth="yes"/>
      <point x="799" y="117"/>
      <point x="742" y="55"/>
      <point x="650" y="55" type="curve" smooth="yes"/>
      <point x="510" y="55" type="line"/>
      <point x="510" y="0" type="line"/>
    </contour>
    <contour>
      <point x="711" y="660" type="line"/>
      <point x="412" y="660" type="line"/>
      <point x="412" y="58" type="line"/>
      <point x="323" y="16" type="line"/>
      <point x="323" y="0" type="line"/>
      <point x="602" y="0" type="line"/>
      <point x="602" y="602" type="line"/>
      <point x="711" y="644" type="line"/>
    </contour>
  </outline>
</glyph>
<glyph name="uni040A" format="2">
  <advance width="1143"/>
  <unicode hex="040A"/>
  <outline>
    <contour>
      <point x="30" y="0" type="line"/>
      <point x="386" y="0" type="line"/>
      <point x="386" y="16" type="line"/>
      <point x="309" y="58" type="line"/>
      <point x="309" y="602" type="line"/>
      <point x="386" y="644" type="line"/>
      <point x="386" y="660" type="line"/>
      <point x="30" y="660" type="line"/>
      <point x="30" y="644" type="line"/>
      <point x="119" y="602" type="line"/>
      <point x="119" y="58" type="line"/>
      <point x="30" y="16" type="line"/>
    </contour>
    <contour>
      <point x="215" y="322" type="line"/>
      <point x="645" y="322" type="line"/>
      <point x="645" y="377" type="line"/>
      <point x="215" y="377" type="line"/>
    </contour>
    <contour>
      <point x="824" y="0" type="line" smooth="yes"/>
      <point x="996" y="0"/>
      <point x="1123" y="64"/>
      <point x="1123" y="191" type="curve" smooth="yes"/>
      <point x="1123" y="314"/>
      <point x="996" y="377"/>
      <point x="824" y="377" type="curve" smooth="yes"/>
      <point x="643" y="377" type="line"/>
      <point x="643" y="322" type="line"/>
      <point x="776" y="322" type="line" smooth="yes"/>
      <point x="876" y="322"/>
      <point x="932" y="282"/>
      <point x="932" y="188" type="curve" smooth="yes"/>
      <point x="932" y="104"/>
      <point x="875" y="55"/>
      <point x="783" y="55" type="curve" smooth="yes"/>
      <point x="643" y="55" type="line"/>
      <point x="643" y="0" type="line"/>
    </contour>
    <contour>
      <point x="844" y="660" type="line"/>
      <point x="456" y="660" type="line"/>
      <point x="456" y="644" type="line"/>
      <point x="545" y="602" type="line"/>
      <point x="545" y="58" type="line"/>
      <point x="456" y="16" type="line"/>
      <point x="456" y="0" type="line"/>
      <point x="735" y="0" type="line"/>
      <point x="735" y="602" type="line"/>
      <point x="844" y="644" type="line"/>
    </contour>
  </outline>
</glyph>
<glyph name="uni040B" format="2">
  <advance width="899"/>
  <unicode hex="040B"/>
  <outline>
    <contour>
      <point x="134" y="0" type="line"/>
      <point x="521" y="0" type="line"/>
      <point x="521" y="16" type="line"/>
      <point x="434" y="58" type="line"/>
      <point x="434" y="605" type="line"/>
      <point x="574" y="605" type="line"/>
      <point x="662" y="469" type="line"/>
      <point x="678" y="469" type="line"/>
      <point x="678" y="660" type="line"/>
      <point x="20" y="660" type="line"/>
      <point x="20" y="459" type="line"/>
      <point x="36" y="459" type="line"/>
      <point x="124" y="605" type="line"/>
      <point x="244" y="605" type="line"/>
      <point x="244" y="58" type="line"/>
      <point x="134" y="16" type="line"/>
    </contour>
    <contour>
      <point x="889" y="0" type="line"/>
      <point x="889" y="16" type="line"/>
      <point x="802" y="58" type="line"/>
      <point x="802" y="223" type="line" smooth="yes"/>
      <point x="802" y="327.0"/>
      <point x="754.0" y="410.0"/>
      <point x="621" y="410" type="curve" smooth="yes"/>
      <point x="526" y="410"/>
      <point x="463" y="370"/>
      <point x="429" y="336" type="curve"/>
      <point x="429" y="279" type="line"/>
      <point x="445" y="294"/>
      <point x="474" y="306"/>
      <point x="516" y="306" type="curve" smooth="yes"/>
      <point x="589.0" y="306.0"/>
      <point x="612" y="255.0"/>
      <point x="612" y="186" type="curve" smooth="yes"/>
      <point x="612" y="0" type="line"/>
    </contour>
  </outline>
</glyph>
<glyph name="uni0414" format="2">
  <advance width="743"/>
  <unicode hex="0414"/>
  <outline>
    <contour>
      <point x="205" y="605" type="line"/>
      <point x="521" y="605" type="line"/>
      <point x="521" y="660" type="line"/>
      <point x="205" y="660" type="line"/>
    </contour>
    <contour>
      <point x="173" y="48" type="line"/>
      <point x="233" y="224"/>
      <point x="244" y="383"/>
      <point x="244" y="593" type="curve" smooth="yes"/>
      <point x="244" y="660" type="line"/>
      <point x="86" y="660" type="line"/>
      <point x="86" y="644" type="line"/>
      <point x="174" y="602" type="line"/>
      <point x="174" y="590" type="line" smooth="yes"/>
      <point x="174" y="391.0"/>
      <point x="165" y="223"/>
      <point x="94" y="48" type="curve"/>
    </contour>
    <contour>
      <point x="421" y="55" type="line"/>
      <point x="10" y="55" type="line"/>
      <point x="10" y="-176" type="line"/>
      <point x="26" y="-176" type="line"/>
      <point x="134" y="0" type="line"/>
      <point x="589" y="0" type="line"/>
      <point x="697" y="-176" type="line"/>
      <point x="713" y="-176" type="line"/>
      <point x="713" y="55" type="line"/>
      <point x="611" y="55" type="line"/>
      <point x="611" y="602" type="line"/>
      <point x="698" y="644" type="line"/>
      <point x="698" y="660" type="line"/>
      <point x="421" y="660" type="line"/>
    </contour>
  </outline>
</glyph>
<glyph name="uni041B" format="2">
  <advance width="729"/>
  <unicode hex="041B"/>
  <outline>
    <contour>
      <point x="206" y="605" type="line"/>
      <point x="522" y="605" type="line"/>
      <point x="522" y="660" type="line"/>
      <point x="206" y="660" type="line"/>
    </contour>
    <contour>
      <point x="335" y="0" type="line"/>
      <point x="699" y="0" type="line"/>
      <point x="699" y="16" type="line"/>
      <point x="612" y="58" type="line"/>
      <point x="612" y="602" type="line"/>
      <point x="699" y="644" type="line"/>
      <point x="699" y="660" type="line"/>
      <point x="422" y="660" type="line"/>
      <point x="422" y="58" type="line"/>
      <point x="335" y="16" type="line"/>
    </contour>
    <contour>
      <point x="245" y="523" type="curve" smooth="yes"/>
      <point x="245" y="660" type="line"/>
      <point x="87" y="660" type="line"/>
      <point x="87" y="644" type="line"/>
      <point x="175" y="602" type="line"/>
      <point x="175" y="520" type="line" smooth="yes"/>
      <point x="175" y="208"/>
      <point x="115" y="116"/>
      <point x="20" y="116" type="curve" smooth="yes"/>
      <point x="11" y="116" type="line"/>
      <point x="5" y="110" type="line"/>
      <point x="5" y="19" type="line" smooth="yes"/>
      <point x="5" y="-3"/>
      <point x="9" y="-10"/>
      <point x="39" y="-10" type="curve" smooth="yes"/>
      <point x="85" y="-10"/>
      <point x="153" y="2"/>
      <point x="201" y="101" type="curve" smooth="yes"/>
      <point x="221" y="142"/>
      <point x="245" y="246"/>
    </contour>
  </outline>
</glyph>
<glyph name="uni042A" format="2">
  <advance width="817.0"/>
  <unicode hex="042A"/>
  <outline>
    <contour>
      <point x="498" y="0" type="line" smooth="yes"/>
      <point x="670" y="0"/>
      <point x="797" y="77"/>
      <point x="797" y="204" type="curve" smooth="yes"/>
      <point x="797" y="327"/>
      <point x="670" y="397"/>
      <point x="498" y="397" type="curve" smooth="yes"/>
      <point x="317" y="397" type="line"/>
      <point x="317" y="342" type="line"/>
      <point x="450" y="342" type="line" smooth="yes"/>
      <point x="550" y="342"/>
      <point x="606" y="295"/>
      <point x="606" y="201" type="curve" smooth="yes"/>
      <point x="606" y="117"/>
      <point x="549" y="55"/>
      <point x="457" y="55" type="curve" smooth="yes"/>
      <point x="317" y="55" type="line"/>
      <point x="317" y="0" type="line"/>
    </contour>
    <contour>
      <point x="518" y="660" type="line"/>
      <point x="219" y="660" type="line"/>
      <point x="219" y="58" type="line"/>
      <point x="130" y="16" type="line"/>
      <point x="130" y="0" type="line"/>
      <point x="409" y="0" type="line"/>
      <point x="409" y="602" type="line"/>
      <point x="518" y="644" type="line"/>
    </contour>
    <contour>
      <point x="274" y="605" type="line"/>
      <point x="306" y="660" type="line"/>
      <point x="30" y="660" type="line"/>
      <point x="30" y="429" type="line"/>
      <point x="46" y="429" type="line"/>
      <point x="134" y="605" type="line"/>
    </contour>
  </outline>
</glyph>
<glyph name="uni042C" format="2">
  <advance width="717"/>
  <unicode hex="042C"/>
  <outline>
    <contour>
      <point x="398" y="0" type="line" smooth="yes"/>
      <point x="570" y="0"/>
      <point x="697" y="77"/>
      <point x="697" y="204" type="curve" smooth="yes"/>
      <point x="697" y="327"/>
      <point x="570" y="397"/>
      <point x="398" y="397" type="curve" smooth="yes"/>
      <point x="217" y="397" type="line"/>
      <point x="217" y="342" type="line"/>
      <point x="350" y="342" type="line" smooth="yes"/>
      <point x="450" y="342"/>
      <point x="506" y="295"/>
      <point x="506" y="201" type="curve" smooth="yes"/>
      <point x="506" y="117"/>
      <point x="449" y="55"/>
      <point x="357" y="55" type="curve" smooth="yes"/>
      <point x="217" y="55" type="line"/>
      <point x="217" y="0" type="line"/>
    </contour>
    <contour>
      <point x="418" y="660" type="line"/>
      <point x="30" y="660" type="line"/>
      <point x="30" y="644" type="line"/>
      <point x="119" y="602" type="line"/>
      <point x="119" y="58" type="line"/>
      <point x="30" y="16" type="line"/>
      <point x="30" y="0" type="line"/>
      <point x="309" y="0" type="line"/>
      <point x="309" y="602" type="line"/>
      <point x="418" y="644" type="line"/>
    </contour>
  </outline>
</glyph>
<glyph name="uni042D" format="2">
  <advance width="701.0"/>
  <unicode hex="042D"/>
  <outline>
    <contour>
      <point x="286" y="43" type="curve" smooth="yes"/>
      <point x="245" y="43"/>
      <point x="201" y="54"/>
      <point x="160" y="82" type="curve"/>
      <point x="196" y="51" type="line"/>
      <point x="73" y="219" type="line"/>
      <point x="55" y="219" type="line"/>
      <point x="72" y="44" type="line"/>
      <point x="123" y="10"/>
      <point x="224" y="-10"/>
      <point x="312" y="-10" type="curve" smooth="yes"/>
      <point x="515" y="-10"/>
      <point x="666" y="134"/>
      <point x="666" y="330" type="curve" smooth="yes"/>
      <point x="666" y="526"/>
      <point x="515" y="670"/>
      <point x="312" y="670" type="curve" smooth="yes"/>
      <point x="204" y="670"/>
      <point x="145" y="650"/>
      <point x="87" y="622" type="curve"/>
      <point x="72" y="428" type="line"/>
      <point x="90" y="428" type="line"/>
      <point x="216" y="615" type="line"/>
      <point x="187" y="591" type="line"/>
      <point x="219" y="612"/>
      <point x="245" y="618"/>
      <point x="286" y="618" type="curve" smooth="yes"/>
      <point x="394" y="618"/>
      <point x="466" y="493"/>
      <point x="466" y="301" type="curve" smooth="yes"/>
      <point x="466" y="144"/>
      <point x="409" y="43"/>
    </contour>
    <contour>
      <point x="251" y="456" type="line"/>
      <point x="235" y="456" type="line"/>
      <point x="235" y="227" type="line"/>
      <point x="251" y="227" type="line"/>
      <point x="311" y="315" type="line"/>
      <point x="549" y="315" type="line"/>
      <point x="549" y="370" type="line"/>
      <point x="311" y="370" type="line"/>
    </contour>
  </outline>
</glyph>
<glyph name="uni042E" format="2">
  <advance width="1107"/>
  <unicode hex="042E"/>
  <outline>
    <contour>
      <point x="30" y="0" type="line"/>
      <point x="386" y="0" type="line"/>
      <point x="386" y="16" type="line"/>
      <point x="309" y="58" type="line"/>
      <point x="309" y="602" type="line"/>
      <point x="386" y="644" type="line"/>
      <point x="386" y="660" type="line"/>
      <point x="30" y="660" type="line"/>
      <point x="30" y="644" type="line"/>
      <point x="119" y="602" type="line"/>
      <point x="119" y="58" type="line"/>
      <point x="30" y="16" type="line"/>
    </contour>
    <contour>
      <point x="728" y="-10" type="curve" smooth="yes"/>
      <point x="925.0" y="-10.0"/>
      <point x="1072.0" y="134.0"/>
      <point x="1072" y="330" type="curve" smooth="yes"/>
      <point x="1072.0" y="526.0"/>
      <point x="925.0" y="670.0"/>
      <point x="728" y="670" type="curve" smooth="yes"/>
      <point x="532.0" y="670.0"/>
      <point x="385.0" y="526.0"/>
      <point x="385" y="330" type="curve" smooth="yes"/>
      <point x="385.0" y="134.0"/>
      <point x="532.0" y="-10.0"/>
    </contour>
    <contour>
      <point x="741" y="43" type="curve" smooth="yes"/>
      <point x="655.0" y="43.0"/>
      <point x="585.0" y="169.0"/>
      <point x="585" y="361" type="curve" smooth="yes"/>
      <point x="585.0" y="518.0"/>
      <point x="642.0" y="618.0"/>
      <point x="717" y="618" type="curve" smooth="yes"/>
      <point x="804.0" y="618.0"/>
      <point x="872.0" y="493.0"/>
      <point x="872" y="301" type="curve" smooth="yes"/>
      <point x="872.0" y="144.0"/>
      <point x="819.0" y="43.0"/>
    </contour>
    <contour>
      <point x="215" y="312" type="line"/>
      <point x="545" y="312" type="line"/>
      <point x="545" y="367" type="line"/>
      <point x="215" y="367" type="line"/>
    </contour>
  </outline>
</glyph>
<glyph name="uni042F" format="2">
  <advance width="795.0"/>
  <unicode hex="042F"/>
  <outline>
    <contour>
      <point x="765" y="0" type="line"/>
      <point x="765" y="16" type="line"/>
      <point x="676" y="58" type="line"/>
      <point x="676" y="602" type="line"/>
      <point x="765" y="644" type="line"/>
      <point x="765" y="660" type="line"/>
      <point x="486" y="660" type="line"/>
      <point x="486" y="59" type="line"/>
      <point x="411" y="16" type="line"/>
      <point x="411" y="0" type="line"/>
    </contour>
    <contour>
      <point x="109" y="475" type="curve" smooth="yes"/>
      <point x="109" y="384"/>
      <point x="173" y="321"/>
      <point x="348" y="306" type="curve"/>
      <point x="364" y="295" type="line"/>
      <point x="498" y="295" type="line"/>
      <point x="498" y="340" type="line"/>
      <point x="448" y="340" type="line"/>
      <point x="347" y="340"/>
      <point x="296" y="395"/>
      <point x="296" y="475" type="curve" smooth="yes"/>
      <point x="296" y="560"/>
      <point x="355" y="605"/>
      <point x="449" y="605" type="curve" smooth="yes"/>
      <point x="506" y="605" type="line"/>
      <point x="506" y="660" type="line"/>
      <point x="385" y="660" type="line" smooth="yes"/>
      <point x="214" y="660"/>
      <point x="109" y="590"/>
    </contour>
    <contour>
      <point x="274" y="0" type="line"/>
      <point x="474" y="323" type="line"/>
      <point x="288" y="348" type="line"/>
      <point x="91" y="59" type="line"/>
      <point x="15" y="16" type="line"/>
      <point x="15" y="0" type="line"/>
    </contour>
  </outline>
</glyph>
<glyph name="uni0431" format="2">
  <advance width="552"/>
  <unicode hex="0431"/>
  <outline>
    <contour>
      <point x="466" y="754" type="curve"/>
      <point x="497" y="754" type="line"/>
      <point x="501" y="750" type="line"/>
      <point x="501" y="698" type="line" smooth="yes"/>
      <point x="501" y="610"/>
      <point x="445" y="554"/>
      <point x="344" y="554" type="curve" smooth="yes"/>
      <point x="263.0" y="554.0"/>
      <point x="235.1382113821138" y="566.0"/>
      <point x="214" y="566" type="curve" smooth="yes"/>
      <point x="194" y="566"/>
      <point x="187" y="554"/>
      <point x="187" y="533" type="curve" smooth="yes"/>
      <point x="187.0" y="507.48648648648646"/>
      <point x="205" y="472"/>
      <point x="205" y="375" type="curve" smooth="yes"/>
      <point x="205" y="242" type="line" smooth="yes"/>
      <point x="205" y="104"/>
      <point x="237" y="43"/>
      <point x="285" y="43" type="curve" smooth="yes"/>
      <point x="318" y="43"/>
      <point x="347" y="79"/>
      <point x="347" y="201" type="curve" smooth="yes"/>
      <point x="347" y="327"/>
      <point x="323" y="398"/>
      <point x="268" y="398" type="curve" smooth="yes"/>
      <point x="233" y="398"/>
      <point x="212.47956024377" y="377.219340365655"/>
      <point x="199" y="357" type="curve"/>
      <point x="166" y="384" type="line"/>
      <point x="189.94297980262638" y="420.91209386238233"/>
      <point x="236.0" y="450.0"/>
      <point x="306" y="450" type="curve" smooth="yes"/>
      <point x="431" y="450"/>
      <point x="527" y="368"/>
      <point x="527" y="231" type="curve" smooth="yes"/>
      <point x="527" y="89"/>
      <point x="413" y="-10"/>
      <point x="277" y="-10" type="curve" smooth="yes"/>
      <point x="108" y="-10"/>
      <point x="25" y="115"/>
      <point x="25" y="266" type="curve" smooth="yes"/>
      <point x="25.0" y="458.76851851851853"/>
      <point x="134.82607893673622" y="629.9512750328599"/>
      <point x="392" y="702" type="curve" smooth="yes"/>
      <point x="453" y="719"/>
      <point x="466" y="732"/>
    </contour>
  </outline>
</glyph>
<glyph name="uni0432" format="2">
  <advance width="578.0"/>
  <unicode hex="0432"/>
  <outline>
    <contour>
      <point x="89" y="412" type="line"/>
      <point x="89" y="48" type="line"/>
      <point x="20" y="16" type="line"/>
      <point x="20" y="0" type="line"/>
      <point x="269" y="0" type="line"/>
      <point x="269" y="460" type="line"/>
      <point x="20" y="460" type="line"/>
      <point x="20" y="444" type="line"/>
    </contour>
    <contour>
      <point x="328" y="251" type="curve"/>
      <point x="329" y="244" type="line"/>
      <point x="447.7146408841496" y="251.35400430255794"/>
      <point x="536.0" y="280.0"/>
      <point x="536" y="355" type="curve" smooth="yes"/>
      <point x="536" y="442"/>
      <point x="433" y="460"/>
      <point x="312" y="460" type="curve" smooth="yes"/>
      <point x="176" y="460" type="line"/>
      <point x="176" y="415" type="line"/>
      <point x="282" y="415" type="line" smooth="yes"/>
      <point x="334" y="415"/>
      <point x="361" y="389"/>
      <point x="361" y="341" type="curve" smooth="yes"/>
      <point x="361" y="287"/>
      <point x="334" y="264"/>
      <point x="279" y="264" type="curve" smooth="yes"/>
      <point x="176" y="264" type="line"/>
      <point x="176" y="224" type="line"/>
      <point x="278" y="224" type="line" smooth="yes"/>
      <point x="355.0" y="224"/>
      <point x="388" y="191"/>
      <point x="388" y="138" type="curve" smooth="yes"/>
      <point x="388" y="76"/>
      <point x="354.0" y="45"/>
      <point x="274" y="45" type="curve" smooth="yes"/>
      <point x="176" y="45" type="line"/>
      <point x="176" y="0" type="line"/>
      <point x="304" y="0" type="line" smooth="yes"/>
      <point x="470" y="0"/>
      <point x="568.0" y="45.0"/>
      <point x="568" y="135" type="curve" smooth="yes"/>
      <point x="568.0" y="206.0"/>
      <point x="500.16978717985353" y="246.8261869774581"/>
    </contour>
  </outline>
</glyph>
<glyph name="uni044A" format="2">
  <advance width="628.0"/>
  <unicode hex="044A"/>
  <outline>
    <contour>
      <point x="36" y="410" type="line"/>
      <point x="159" y="410" type="line"/>
      <point x="262" y="460" type="line"/>
      <point x="10" y="460" type="line"/>
      <point x="10" y="289" type="line"/>
      <point x="31" y="289" type="line"/>
      <point x="130" y="452" type="line"/>
    </contour>
    <contour>
      <point x="354" y="284" type="curve" smooth="yes"/>
      <point x="226" y="284" type="line"/>
      <point x="226" y="239" type="line"/>
      <point x="343" y="239" type="line" smooth="yes"/>
      <point x="403" y="239"/>
      <point x="438" y="199"/>
      <point x="438" y="142" type="curve" smooth="yes"/>
      <point x="438" y="79"/>
      <point x="403" y="45"/>
      <point x="343" y="45" type="curve" smooth="yes"/>
      <point x="226" y="45" type="line"/>
      <point x="226" y="0" type="line"/>
      <point x="354" y="0" type="line" smooth="yes"/>
      <point x="520" y="0"/>
      <point x="618" y="48"/>
      <point x="618" y="153" type="curve" smooth="yes"/>
      <point x="618" y="239"/>
      <point x="520" y="284"/>
    </contour>
    <contour>
      <point x="418" y="460" type="line"/>
      <point x="90" y="460" type="line"/>
      <point x="90" y="444" type="line"/>
      <point x="159" y="412" type="line"/>
      <point x="159" y="48" type="line"/>
      <point x="90" y="16" type="line"/>
      <point x="90" y="0" type="line"/>
      <point x="339" y="0" type="line"/>
      <point x="339" y="412" type="line"/>
      <point x="418" y="444" type="line"/>
    </contour>
  </outline>
</glyph>
<glyph name="uni0459" format="2">
  <advance width="761"/>
  <unicode hex="0459"/>
  <outline>
    <contour>
      <point x="146" y="410" type="line"/>
      <point x="354" y="410" type="line"/>
      <point x="354" y="460" type="line"/>
      <point x="146" y="460" type="line"/>
    </contour>
    <contour>
      <point x="199" y="378" type="curve" smooth="yes"/>
      <point x="199" y="460" type="line"/>
      <point x="70" y="460" type="line"/>
      <point x="70" y="444" type="line"/>
      <point x="139" y="412" type="line"/>
      <point x="139" y="378" type="line" smooth="yes"/>
      <point x="139" y="184"/>
      <point x="118" y="106"/>
      <point x="30" y="106" type="curve" smooth="yes"/>
      <point x="16" y="106" type="line"/>
      <point x="10" y="100" type="line"/>
      <point x="10" y="19" type="line" smooth="yes"/>
      <point x="10" y="-3"/>
      <point x="14" y="-10"/>
      <point x="44" y="-10" type="curve" smooth="yes"/>
      <point x="83" y="-10"/>
      <point x="128" y="4"/>
      <point x="157" y="57" type="curve" smooth="yes"/>
      <point x="188" y="113"/>
      <point x="199" y="221"/>
    </contour>
    <contour>
      <point x="487" y="280" type="curve" smooth="yes"/>
      <point x="359" y="280" type="line"/>
      <point x="359" y="235" type="line"/>
      <point x="472" y="235" type="line" smooth="yes"/>
      <point x="535.0" y="235"/>
      <point x="571.0" y="196.0"/>
      <point x="571" y="140" type="curve" smooth="yes"/>
      <point x="571.0" y="78.0"/>
      <point x="535.0" y="45"/>
      <point x="472" y="45" type="curve" smooth="yes"/>
      <point x="359" y="45" type="line"/>
      <point x="359" y="0" type="line"/>
      <point x="487" y="0" type="line" smooth="yes"/>
      <point x="653" y="0"/>
      <point x="751" y="47"/>
      <point x="751" y="151" type="curve" smooth="yes"/>
      <point x="751.0" y="236.0"/>
      <point x="653.0" y="280"/>
    </contour>
    <contour>
      <point x="551" y="460" type="line"/>
      <point x="223" y="460" type="line"/>
      <point x="223" y="444" type="line"/>
      <point x="292" y="412" type="line"/>
      <point x="292" y="48" type="line"/>
      <point x="233" y="16" type="line"/>
      <point x="233" y="0" type="line"/>
      <point x="472" y="0" type="line"/>
      <point x="472" y="412" type="line"/>
      <point x="551" y="444" type="line"/>
    </contour>
  </outline>
</glyph>
<glyph name="uni0475" format="2">
  <advance width="482"/>
  <unicode hex="0475"/>
  <outline>
    <contour>
      <point x="209" y="0" type="line"/>
      <point x="246" y="0" type="line"/>
      <point x="311" y="138" type="line"/>
      <point x="303" y="244" type="line"/>
      <point x="287" y="244" type="line"/>
      <point x="207" y="414" type="line"/>
      <point x="207" y="416" type="line"/>
      <point x="267" y="444" type="line"/>
      <point x="267" y="460" type="line"/>
      <point x="-44" y="460" type="line"/>
      <point x="-44" y="444" type="line"/>
      <point x="15" y="419" type="line"/>
    </contour>
    <contour>
      <point x="372" y="283" type="line" smooth="yes"/>
      <point x="394" y="339"/>
      <point x="412" y="354"/>
      <point x="462" y="354" type="curve" smooth="yes"/>
      <point x="476" y="354" type="line"/>
      <point x="482" y="360" type="line"/>
      <point x="482" y="441" type="line" smooth="yes"/>
      <point x="482" y="463"/>
      <point x="478" y="470"/>
      <point x="457" y="470" type="curve" smooth="yes"/>
      <point x="415.95454545454544" y="470.0"/>
      <point x="370.2730530022825" y="447.21479151602495"/>
      <point x="328" y="332" type="curve" smooth="yes"/>
      <point x="226" y="54" type="line"/>
      <point x="226" y="0" type="line"/>
      <point x="258" y="0" type="line"/>
    </contour>
  </outline>
</glyph>
<glyph name="i.superior" format="2">
  <advance width="183"/>
  <unicode hex="2071"/>
  <anchor x="95.0" y="764.0" name="top"/>
  <anchor x="113.0" y="505.0" name="right"/>
  <anchor x="95.0" y="505.0" name="bottom"/>
  <outline>
    <contour>
      <point x="6" y="505" type="line"/>
      <point x="177" y="505" type="line"/>
      <point x="177" y="513" type="line"/>
      <point x="148" y="529" type="line"/>
      <point x="148" y="745" type="line"/>
      <point x="138" y="745" type="line"/>
      <point x="8" y="717" type="line"/>
      <point x="8" y="708" type="line"/>
      <point x="43" y="687" type="line"/>
      <point x="43" y="529" type="line"/>
      <point x="6" y="513" type="line"/>
    </contour>
    <contour>
      <point x="94" y="784" type="curve" smooth="yes"/>
      <point x="120" y="784"/>
      <point x="139" y="802"/>
      <point x="139" y="827" type="curve" smooth="yes"/>
      <point x="139" y="852"/>
      <point x="120" y="871"/>
      <point x="94" y="871" type="curve" smooth="yes"/>
      <point x="69" y="871"/>
      <point x="50" y="852"/>
      <point x="50" y="827" type="curve" smooth="yes"/>
      <point x="50" y="802"/>
      <point x="69" y="784"/>
    </contour>
  </outline>
</glyph>
<glyph name="uni20B4" format="2">
  <advance width="600"/>
  <unicode hex="20B4"/>
  <outline>
    <contour>
      <point x="40" y="398" type="line"/>
      <point x="561" y="398" type="line"/>
      <point x="561" y="442" type="line"/>
      <point x="40" y="442" type="line"/>
    </contour>
    <contour>
      <point x="40" y="248" type="line"/>
      <point x="561" y="248" type="line"/>
      <point x="561" y="292" type="line"/>
      <point x="40" y="292" type="line"/>
    </contour>
    <contour>
      <point x="152" y="289" type="line"/>
      <point x="97" y="268"/>
      <point x="59" y="226"/>
      <point x="59" y="157" type="curve" smooth="yes"/>
      <point x="59" y="41"/>
      <point x="159" y="-10"/>
      <point x="308" y="-10" type="curve" smooth="yes"/>
      <point x="400" y="-10"/>
      <point x="461" y="11"/>
      <point x="525" y="44" type="curve"/>
      <point x="535" y="197" type="line"/>
      <point x="516" y="197" type="line"/>
      <point x="416" y="62" type="line"/>
      <point x="452" y="93" type="line"/>
      <point x="425" y="71"/>
      <point x="394" y="44"/>
      <point x="332" y="44" type="curve" smooth="yes"/>
      <point x="272.0" y="44.0"/>
      <point x="229.0" y="73.0"/>
      <point x="229" y="137" type="curve" smooth="yes"/>
      <point x="229.0" y="188.0"/>
      <point x="258.0" y="232.0"/>
      <point x="328" y="269" type="curve"/>
    </contour>
    <contour>
      <point x="264" y="415" type="curve"/>
      <point x="493" y="420" type="line"/>
      <point x="520.0" y="445.0"/>
      <point x="534" y="475"/>
      <point x="534" y="522" type="curve" smooth="yes"/>
      <point x="534" y="626"/>
      <point x="419" y="670"/>
      <point x="288" y="670" type="curve" smooth="yes"/>
      <point x="216" y="670"/>
      <point x="143" y="652"/>
      <point x="90" y="622" type="curve"/>
      <point x="80" y="482" type="line"/>
      <point x="98" y="482" type="line"/>
      <point x="204" y="611" type="line"/>
      <point x="151" y="573" type="line"/>
      <point x="192" y="600"/>
      <point x="219" y="615"/>
      <point x="265" y="615" type="curve" smooth="yes"/>
      <point x="322.0" y="615.0"/>
      <point x="360.0" y="585.0"/>
      <point x="360" y="527" type="curve" smooth="yes"/>
      <point x="360.0" y="484.0"/>
      <point x="341.0" y="445.0"/>
    </contour>
  </outline>
</glyph>
<glyph name="s_t" format="2">
  <advance width="848"/>
  <unicode hex="FB06"/>
  <outline>
    <contour>
      <point x="207.0" y="-10.0" type="curve" smooth="yes"/>
      <point x="310.0" y="-10.0"/>
      <point x="396.0" y="53.0"/>
      <point x="396.0" y="151.0" type="curve" smooth="yes"/>
      <point x="396.0" y="245.0"/>
      <point x="332.0" y="271.0"/>
      <point x="276.0" y="291.0" type="curve" smooth="yes"/>
      <point x="183.0" y="325.0"/>
      <point x="171.0" y="340.0"/>
      <point x="171.0" y="369.0" type="curve" smooth="yes"/>
      <point x="171.0" y="402.0"/>
      <point x="195.0" y="421.0"/>
      <point x="232.0" y="421.0" type="curve" smooth="yes"/>
      <point x="274.0" y="421.0"/>
      <point x="295" y="401"/>
      <point x="324" y="360" type="curve" smooth="yes"/>
      <point x="354.0" y="317.0" type="line"/>
      <point x="370" y="317" type="line"/>
      <point x="370" y="442" type="line"/>
      <point x="333" y="479"/>
      <point x="307.0" y="513.721311475"/>
      <point x="307" y="567" type="curve" smooth="yes"/>
      <point x="307.0" y="639.165289256"/>
      <point x="350.805309735" y="685.0"/>
      <point x="417" y="685" type="curve" smooth="yes"/>
      <point x="474.663366337" y="685.0"/>
      <point x="521" y="650.0"/>
      <point x="521" y="554" type="curve" smooth="yes"/>
      <point x="521" y="460" type="line"/>
      <point x="446" y="435" type="line"/>
      <point x="446" y="416" type="line"/>
      <point x="511" y="416" type="line"/>
      <point x="511" y="89" type="line" smooth="yes"/>
      <point x="511" y="26"/>
      <point x="575" y="-10"/>
      <point x="671" y="-10" type="curve" smooth="yes"/>
      <point x="732" y="-10"/>
      <point x="799" y="19"/>
      <point x="826" y="53" type="curve"/>
      <point x="826" y="75" type="line"/>
      <point x="823" y="77" type="line"/>
      <point x="803" y="73"/>
      <point x="787" y="70"/>
      <point x="763" y="70" type="curve" smooth="yes"/>
      <point x="724" y="70"/>
      <point x="691" y="86"/>
      <point x="691" y="120" type="curve" smooth="yes"/>
      <point x="691" y="416" type="line"/>
      <point x="833" y="416" type="line"/>
      <point x="833" y="460" type="line"/>
      <point x="691" y="460" type="line"/>
      <point x="691" y="539" type="line" smooth="yes"/>
      <point x="691" y="664.0"/>
      <point x="621.679069767" y="750.0"/>
      <point x="475" y="750" type="curve" smooth="yes"/>
      <point x="347.606635071" y="750.0"/>
      <point x="265.0" y="671.849462366"/>
      <point x="265" y="566" type="curve" smooth="yes"/>
      <point x="265.0" y="508.11627907"/>
      <point x="290.772717718" y="465.179433381"/>
      <point x="329" y="435" type="curve"/>
      <point x="339" y="456" type="line"/>
      <point x="306" y="467"/>
      <point x="272.0" y="470.0"/>
      <point x="240.0" y="470.0" type="curve" smooth="yes"/>
      <point x="123.0" y="470.0"/>
      <point x="49.0" y="395.0"/>
      <point x="49.0" y="300.0" type="curve" smooth="yes"/>
      <point x="49.0" y="243.0"/>
      <point x="81.0" y="199.0"/>
      <point x="161.0" y="168.0" type="curve" smooth="yes"/>
      <point x="257.0" y="131.0"/>
      <point x="275.0" y="119.0"/>
      <point x="275.0" y="87.0" type="curve" smooth="yes"/>
      <point x="275.0" y="57.0"/>
      <point x="250.0" y="40.0"/>
      <point x="202.0" y="40.0" type="curve" smooth="yes"/>
      <point x="160.0" y="40.0"/>
      <point x="123.0" y="60.0"/>
      <point x="98.0" y="95.0" type="curve" smooth="yes"/>
      <point x="61.0" y="146.0" type="line"/>
      <point x="45.0" y="146.0" type="line"/>
      <point x="45.0" y="28.0" type="line"/>
      <point x="92.0" y="5.0"/>
      <point x="139.0" y="-10.0"/>
    </contour>
  </outline>
</glyph>
<glyph name="Euro.OT" format="2">
  <advance width="600"/>
  <outline>
    <contour>
      <point x="349" y="-10" type="curve" smooth="yes"/>
      <point x="440.0" y="-10.0"/>
      <point x="501" y="44"/>
      <point x="531" y="110" type="curve"/>
      <point x="531" y="160" type="line"/>
      <point x="528" y="160" type="line"/>
      <point x="494.0" y="127.0"/>
      <point x="457.0" y="116.0"/>
      <point x="428" y="116" type="curve" smooth="yes"/>
      <point x="331.0" y="116.0"/>
      <point x="287.0" y="187.0"/>
      <point x="287" y="304" type="curve" smooth="yes"/>
      <point x="287.0" y="421.0"/>
      <point x="315.0" y="498.0"/>
      <point x="358" y="498" type="curve" smooth="yes"/>
      <point x="383.0" y="498.0"/>
      <point x="391.0" y="482.0"/>
      <point x="424" y="437" type="curve" smooth="yes"/>
      <point x="457" y="392" type="line"/>
      <point x="464" y="392" type="line"/>
      <point x="517" y="437" type="line" smooth="yes"/>
      <point x="527" y="446"/>
      <point x="529" y="451"/>
      <point x="529" y="461" type="curve" smooth="yes"/>
      <point x="529.0" y="469.0"/>
      <point x="525.0" y="478.0"/>
      <point x="514" y="491" type="curve" smooth="yes"/>
      <point x="487" y="521"/>
      <point x="438.0" y="540.0"/>
      <point x="373" y="540" type="curve" smooth="yes"/>
      <point x="230.0" y="540.0"/>
      <point x="116.0" y="422.0"/>
      <point x="116" y="245" type="curve" smooth="yes"/>
      <point x="116.0" y="88.0"/>
      <point x="222.0" y="-10.0"/>
    </contour>
    <contour>
      <point x="45" y="317" type="line"/>
      <point x="423" y="317" type="line"/>
      <point x="423" y="361" type="line"/>
      <point x="45" y="361" type="line"/>
    </contour>
    <contour>
      <point x="45" y="167" type="line"/>
      <point x="423" y="167" type="line"/>
      <point x="423" y="211" type="line"/>
      <point x="45" y="211" type="line"/>
    </contour>
  </outline>
</glyph>
<glyph name="breveinvertedcomb.case" format="2">
  <anchor x="0" y="710" name="_top"/>
  <outline>
    <contour>
      <point x="-168" y="710" type="curve"/>
      <point x="-140" y="710" type="line"/>
      <point x="-112" y="769"/>
      <point x="-61" y="777"/>
      <point x="0" y="777" type="curve" smooth="yes"/>
      <point x="61" y="777"/>
      <point x="113" y="768"/>
      <point x="140" y="710" type="curve"/>
      <point x="168" y="710" type="line"/>
      <point x="145" y="813"/>
      <point x="103" y="862"/>
      <point x="0" y="862" type="curve" smooth="yes"/>
      <point x="-89" y="862"/>
      <point x="-144" y="813"/>
    </contour>
  </outline>
</glyph>
<glyph name="caroncomb.alt" format="2">
  <advance width="201"/>
  <anchor x="106" y="740" name="_right"/>
  <outline>
    <contour>
      <point x="35" y="553" type="line"/>
      <point x="64" y="553" type="line"/>
      <point x="152" y="675" type="line" smooth="yes"/>
      <point x="171" y="701"/>
      <point x="167" y="722"/>
      <point x="163" y="740" type="curve"/>
      <point x="49" y="740" type="line"/>
    </contour>
  </outline>
</glyph>
<glyph name="cyrbreve.case" format="2">
  <outline>
    <contour>
      <point x="0" y="712" type="curve" smooth="yes"/>
      <point x="120.053191489" y="712.0"/>
      <point x="185.0" y="775.0"/>
      <point x="185" y="862" type="curve"/>
      <point x="79" y="862" type="line"/>
      <point x="79.0" y="794.0"/>
      <point x="54.9146341463" y="748.0"/>
      <point x="0" y="748" type="curve" smooth="yes"/>
      <point x="-54.9146341463" y="748.0"/>
      <point x="-79.0" y="794.0"/>
      <point x="-79" y="862" type="curve"/>
      <point x="-185" y="862" type="line"/>
      <point x="-185.0" y="775.0"/>
      <point x="-120.053191489" y="712.0"/>
    </contour>
  </outline>
</glyph>
<glyph name="cyrbreve" format="2">
  <anchor x="0.0" y="502.0" name="_top"/>
  <outline>
    <contour>
      <point x="-182" y="707" type="line"/>
      <point x="-182.0" y="610.0"/>
      <point x="-117.52331606217616" y="540.0"/>
      <point x="1" y="540" type="curve" smooth="yes"/>
      <point x="119.52331606217616" y="540.0"/>
      <point x="184.0" y="610.0"/>
      <point x="184" y="707" type="curve"/>
      <point x="78" y="707" type="line"/>
      <point x="78.0" y="629.0"/>
      <point x="54.98850574712644" y="576.0"/>
      <point x="1" y="576" type="curve" smooth="yes"/>
      <point x="-52.98850574712644" y="576.0"/>
      <point x="-76.0" y="629.0"/>
      <point x="-76" y="707" type="curve"/>
    </contour>
  </outline>
</glyph>
<glyph name="cyrbrevecomb" format="2">
  <anchor x="0.0" y="502.0" name="_top"/>
  <outline>
    <contour>
      <point x="-182" y="707" type="curve"/>
      <point x="-76" y="707" type="line"/>
      <point x="-76.0" y="629.0"/>
      <point x="-52.98850574712644" y="576.0"/>
      <point x="1" y="576" type="curve" smooth="yes"/>
      <point x="54.98850574712644" y="576.0"/>
      <point x="78.0" y="629.0"/>
      <point x="78" y="707" type="curve"/>
      <point x="184" y="707" type="line"/>
      <point x="184.0" y="610.0"/>
      <point x="119.52331606217616" y="540.0"/>
      <point x="1" y="540" type="curve" smooth="yes"/>
      <point x="-117.52331606217616" y="540.0"/>
      <point x="-182.0" y="610.0"/>
    </contour>
  </outline>
</glyph>
<glyph name="l.sc" format="2">
  <advance width="596"/>
  <anchor x="324" y="0" name="bottom"/>
  <anchor x="203" y="615" name="top"/>
  <anchor x="475" y="560" name="right"/>
  <anchor x="487" y="315" name="mid"/>
  <outline>
    <contour>
      <point x="30" y="0" type="line"/>
      <point x="556" y="0" type="line"/>
      <point x="556" y="228" type="line"/>
      <point x="540" y="228" type="line"/>
      <point x="455" y="52" type="line"/>
      <point x="291" y="52" type="line"/>
      <point x="291" y="511" type="line"/>
      <point x="375" y="544" type="line"/>
      <point x="375" y="560" type="line"/>
      <point x="30" y="560" type="line"/>
      <point x="30" y="544" type="line"/>
      <point x="106" y="511" type="line"/>
      <point x="106" y="49" type="line"/>
      <point x="30" y="16" type="line"/>
    </contour>
  </outline>
</glyph>
<glyph name="l.superior" format="2">
  <advance width="185"/>
  <anchor x="96.0" y="894.0" name="top"/>
  <anchor x="210.0" y="881.0" name="right"/>
  <anchor x="218.0" y="669.0" name="mid"/>
  <anchor x="96.0" y="505.0" name="bottom"/>
  <outline>
    <contour>
      <point x="8" y="505" type="line"/>
      <point x="178" y="505" type="line"/>
      <point x="178" y="513" type="line"/>
      <point x="149" y="529" type="line"/>
      <point x="149" y="886" type="line"/>
      <point x="141" y="886" type="line"/>
      <point x="9" y="858" type="line"/>
      <point x="9" y="849" type="line"/>
      <point x="44" y="828" type="line"/>
      <point x="44" y="529" type="line"/>
      <point x="8" y="513" type="line"/>
    </contour>
  </outline>
</glyph>
<glyph name="ohorn.sc" format="2">
  <advance width="694"/>
  <anchor x="347" y="615" name="top"/>
  <anchor x="347" y="0" name="bottom"/>
  <anchor x="377" y="0" name="right"/>
  <outline>
    <contour>
      <point x="347" y="-10" type="curve" smooth="yes"/>
      <point x="529" y="-10"/>
      <point x="659" y="114"/>
      <point x="659" y="281" type="curve" smooth="yes"/>
      <point x="659" y="448"/>
      <point x="529" y="572"/>
      <point x="347" y="572" type="curve" smooth="yes"/>
      <point x="165" y="572"/>
      <point x="35" y="448"/>
      <point x="35" y="281" type="curve" smooth="yes"/>
      <point x="35" y="114"/>
      <point x="165" y="-10"/>
    </contour>
    <contour>
      <point x="359" y="43" type="curve" smooth="yes"/>
      <point x="284" y="43"/>
      <point x="229" y="156"/>
      <point x="229" y="307" type="curve" smooth="yes"/>
      <point x="229" y="429"/>
      <point x="273" y="520"/>
      <point x="338" y="520" type="curve" smooth="yes"/>
      <point x="412" y="520"/>
      <point x="466" y="408"/>
      <point x="466" y="256" type="curve" smooth="yes"/>
      <point x="466" y="134"/>
      <point x="424" y="43"/>
    </contour>
    <contour>
      <point x="660" y="616" type="curve" smooth="yes"/>
      <point x="660" y="640"/>
      <point x="655" y="643"/>
      <point x="637" y="643" type="curve" smooth="yes"/>
      <point x="573" y="643" type="line"/>
      <point x="568" y="638" type="line"/>
      <point x="568" y="598" type="line" smooth="yes"/>
      <point x="568" y="567"/>
      <point x="550" y="547"/>
      <point x="500" y="547" type="curve" smooth="yes"/>
      <point x="481" y="547"/>
      <point x="460" y="554"/>
      <point x="429" y="563" type="curve"/>
      <point x="420" y="544" type="line"/>
      <point x="455" y="525"/>
      <point x="495" y="519"/>
      <point x="534" y="519" type="curve" smooth="yes"/>
      <point x="615.0" y="519.0"/>
      <point x="660.0" y="551.0"/>
    </contour>
  </outline>
</glyph>
<glyph name="s_p" format="2">
  <advance width="1040"/>
  <outline>
    <contour>
      <point x="207.0" y="-10.0" type="curve" smooth="yes"/>
      <point x="310.0" y="-10.0"/>
      <point x="396.0" y="53.0"/>
      <point x="396.0" y="151.0" type="curve" smooth="yes"/>
      <point x="396.0" y="245.0"/>
      <point x="332.0" y="271.0"/>
      <point x="276.0" y="291.0" type="curve" smooth="yes"/>
      <point x="183.0" y="325.0"/>
      <point x="171.0" y="340.0"/>
      <point x="171.0" y="369.0" type="curve" smooth="yes"/>
      <point x="171.0" y="402.0"/>
      <point x="195.0" y="421.0"/>
      <point x="232.0" y="421.0" type="curve" smooth="yes"/>
      <point x="274.0" y="421.0"/>
      <point x="295.0" y="401.0"/>
      <point x="324.0" y="360.0" type="curve" smooth="yes"/>
      <point x="354.0" y="317.0" type="line"/>
      <point x="370.0" y="317.0" type="line"/>
      <point x="370" y="442" type="line"/>
      <point x="333" y="472"/>
      <point x="307.0" y="506.0"/>
      <point x="307" y="560" type="curve" smooth="yes"/>
      <point x="307.0" y="648.0"/>
      <point x="379.631578947" y="695.0"/>
      <point x="507" y="695" type="curve" smooth="yes"/>
      <point x="523" y="695"/>
      <point x="542" y="693"/>
      <point x="561" y="691" type="curve"/>
      <point x="530" y="727" type="line"/>
      <point x="530.0" y="-182.0" type="line"/>
      <point x="461.0" y="-214.0" type="line"/>
      <point x="461.0" y="-230.0" type="line"/>
      <point x="792.0" y="-230.0" type="line"/>
      <point x="792.0" y="-214.0" type="line"/>
      <point x="710.0" y="-182.0" type="line"/>
      <point x="710" y="732" type="line"/>
      <point x="664" y="745"/>
      <point x="611" y="750"/>
      <point x="547" y="750" type="curve" smooth="yes"/>
      <point x="432.0" y="750.0"/>
      <point x="265.0" y="710.207253886"/>
      <point x="265" y="558" type="curve" smooth="yes"/>
      <point x="265.0" y="510.608333333"/>
      <point x="286" y="460"/>
      <point x="327" y="437" type="curve"/>
      <point x="333.0" y="457.0" type="line"/>
      <point x="302.0" y="467.0"/>
      <point x="270.0" y="470.0"/>
      <point x="240.0" y="470.0" type="curve" smooth="yes"/>
      <point x="123.0" y="470.0"/>
      <point x="49.0" y="395.0"/>
      <point x="49.0" y="300.0" type="curve" smooth="yes"/>
      <point x="49.0" y="243.0"/>
      <point x="81.0" y="199.0"/>
      <point x="161.0" y="168.0" type="curve" smooth="yes"/>
      <point x="257.0" y="131.0"/>
      <point x="275.0" y="119.0"/>
      <point x="275.0" y="87.0" type="curve" smooth="yes"/>
      <point x="275.0" y="57.0"/>
      <point x="250.0" y="40.0"/>
      <point x="202.0" y="40.0" type="curve" smooth="yes"/>
      <point x="160.0" y="40.0"/>
      <point x="123.0" y="60.0"/>
      <point x="98.0" y="95.0" type="curve" smooth="yes"/>
      <point x="61.0" y="146.0" type="line"/>
      <point x="45.0" y="146.0" type="line"/>
      <point x="45.0" y="28.0" type="line"/>
      <point x="92.0" y="5.0"/>
      <point x="139.0" y="-10.0"/>
    </contour>
    <contour>
      <point x="784" y="-10" type="curve"/>
      <point x="908" y="-10"/>
      <point x="1020" y="90"/>
      <point x="1020" y="247" type="curve" smooth="yes"/>
      <point x="1020" y="385"/>
      <point x="938" y="470"/>
      <point x="856" y="470" type="curve" smooth="yes"/>
      <point x="805" y="470"/>
      <point x="763" y="453"/>
      <point x="716" y="412" type="curve"/>
      <point x="698" y="412" type="line"/>
      <point x="698" y="359" type="line"/>
      <point x="723" y="372"/>
      <point x="733" y="379"/>
      <point x="756" y="379" type="curve" smooth="yes"/>
      <point x="795" y="379"/>
      <point x="840" y="328"/>
      <point x="840" y="220" type="curve" smooth="yes"/>
      <point x="840" y="74"/>
      <point x="793" y="45"/>
      <point x="755" y="45" type="curve" smooth="yes"/>
      <point x="732" y="45"/>
      <point x="712" y="59"/>
      <point x="708" y="77" type="curve"/>
      <point x="638" y="37" type="line"/>
      <point x="682" y="-1"/>
      <point x="728" y="-10"/>
    </contour>
  </outline>
</glyph>
<glyph name="two.OT" format="2">
  <advance width="600"/>
  <outline>
    <contour>
      <point x="54" y="0" type="line"/>
      <point x="529" y="0" type="line"/>
      <point x="541" y="224" type="line"/>
      <point x="524" y="224" type="line"/>
      <point x="474" y="127" type="line"/>
      <point x="185" y="127" type="line"/>
      <point x="174" y="101" type="line"/>
      <point x="383.0" y="208.0"/>
      <point x="511.0" y="250.0"/>
      <point x="511" y="372" type="curve" smooth="yes"/>
      <point x="511.0" y="468.0"/>
      <point x="437.0" y="540.0"/>
      <point x="297" y="540" type="curve" smooth="yes"/>
      <point x="189.0" y="540.0"/>
      <point x="89" y="480"/>
      <point x="40" y="366" type="curve"/>
      <point x="78" y="352" type="line"/>
      <point x="106.0" y="409.0"/>
      <point x="146.0" y="449.0"/>
      <point x="210" y="449" type="curve" smooth="yes"/>
      <point x="282.0" y="449.0"/>
      <point x="314.0" y="401.0"/>
      <point x="314" y="351" type="curve" smooth="yes"/>
      <point x="314.0" y="256.0"/>
      <point x="249.0" y="221.0"/>
      <point x="54" y="43" type="curve"/>
    </contour>
  </outline>
</glyph>
<glyph name="uni0414.bgr" format="2">
  <advance width="733"/>
  <outline>
    <contour>
      <point x="408" y="665" type="line"/>
      <point x="335" y="665" type="line"/>
      <point x="64" y="28" type="line"/>
      <point x="139" y="28" type="line"/>
      <point x="329" y="492" type="line"/>
      <point x="278" y="423" type="line"/>
      <point x="333" y="423" type="line"/>
      <point x="282" y="492" type="line"/>
      <point x="472" y="28" type="line"/>
      <point x="676" y="28" type="line"/>
    </contour>
    <contour>
      <point x="0" y="55" type="line"/>
      <point x="0" y="-176" type="line"/>
      <point x="16" y="-176" type="line"/>
      <point x="124" y="0" type="line"/>
      <point x="609" y="0" type="line"/>
      <point x="717" y="-176" type="line"/>
      <point x="733" y="-176" type="line"/>
      <point x="733" y="55" type="line"/>
    </contour>
  </outline>
</glyph>
<glyph name="uni0431.locl" format="2">
  <advance width="552"/>
  <outline>
    <contour>
      <point x="285" y="43" type="curve" smooth="yes"/>
      <point x="229" y="43"/>
      <point x="205" y="140"/>
      <point x="205" y="251" type="curve" smooth="yes"/>
      <point x="205" y="344"/>
      <point x="224" y="418"/>
      <point x="269" y="418" type="curve" smooth="yes"/>
      <point x="324" y="418"/>
      <point x="347" y="321"/>
      <point x="347" y="210" type="curve" smooth="yes"/>
      <point x="347" y="119"/>
      <point x="328" y="43"/>
    </contour>
    <contour>
      <point x="197" y="451" type="line"/>
      <point x="92" y="419"/>
      <point x="25.0" y="335.0"/>
      <point x="25" y="230" type="curve" smooth="yes"/>
      <point x="25" y="102"/>
      <point x="127" y="-10"/>
      <point x="276" y="-10" type="curve" smooth="yes"/>
      <point x="425" y="-10"/>
      <point x="527.0" y="102.0"/>
      <point x="527" y="230" type="curve" smooth="yes"/>
      <point x="527.0" y="359.0"/>
      <point x="437" y="449"/>
      <point x="276" y="470" type="curve" smooth="yes"/>
      <point x="154.6251433889488" y="486.04956781633734"/>
      <point x="139.0" y="514.3333333333334"/>
      <point x="139" y="540" type="curve" smooth="yes"/>
      <point x="139.0" y="579.6190476190476"/>
      <point x="159.0" y="592.0"/>
      <point x="288" y="592" type="curve" smooth="yes"/>
      <point x="471" y="592"/>
      <point x="501" y="622"/>
      <point x="501" y="737" type="curve" smooth="yes"/>
      <point x="501" y="766" type="line"/>
      <point x="497" y="770" type="line"/>
      <point x="466" y="770" type="line"/>
      <point x="466" y="732"/>
      <point x="443" y="723"/>
      <point x="288" y="723" type="curve" smooth="yes"/>
      <point x="149" y="723"/>
      <point x="65" y="670"/>
      <point x="65" y="569" type="curve" smooth="yes"/>
      <point x="65" y="495"/>
      <point x="110.86386808541913" y="453.0178759079753"/>
      <point x="210" y="440" type="curve"/>
    </contour>
  </outline>
</glyph>
<glyph name="uni0434.bgr" format="2">
  <advance width="580"/>
  <outline>
    <contour>
      <point x="335" y="-28" type="line" smooth="yes"/>
      <point x="335" y="-146.0"/>
      <point x="317" y="-196"/>
      <point x="252" y="-196" type="curve" smooth="yes"/>
      <point x="210" y="-196"/>
      <point x="196" y="-171"/>
      <point x="168" y="-131" type="curve" smooth="yes"/>
      <point x="128" y="-74" type="line"/>
      <point x="120" y="-74" type="line"/>
      <point x="60" y="-125" type="line" smooth="yes"/>
      <point x="48" y="-135"/>
      <point x="46" y="-141"/>
      <point x="46" y="-152" type="curve" smooth="yes"/>
      <point x="46" y="-162"/>
      <point x="51" y="-173"/>
      <point x="63" y="-187" type="curve" smooth="yes"/>
      <point x="95" y="-224"/>
      <point x="157" y="-240"/>
      <point x="238" y="-240" type="curve" smooth="yes"/>
      <point x="420" y="-240"/>
      <point x="515" y="-127.0"/>
      <point x="515" y="29" type="curve" smooth="yes"/>
      <point x="515" y="470" type="line"/>
      <point x="499" y="470" type="line"/>
      <point x="352" y="432" type="line"/>
      <point x="408" y="432" type="line"/>
      <point x="368" y="460"/>
      <point x="328" y="470"/>
      <point x="271" y="470" type="curve" smooth="yes"/>
      <point x="120" y="470"/>
      <point x="25" y="361"/>
      <point x="25" y="195" type="curve" smooth="yes"/>
      <point x="25" y="70"/>
      <point x="107" y="-10"/>
      <point x="189" y="-10" type="curve" smooth="yes"/>
      <point x="234" y="-10"/>
      <point x="275" y="4"/>
      <point x="328" y="47" type="curve"/>
      <point x="362" y="47" type="line"/>
      <point x="362" y="109" type="line"/>
      <point x="318" y="86"/>
      <point x="308" y="81"/>
      <point x="289" y="81" type="curve" smooth="yes"/>
      <point x="250" y="81"/>
      <point x="205" y="129"/>
      <point x="205" y="251" type="curve" smooth="yes"/>
      <point x="205" y="384"/>
      <point x="242" y="415"/>
      <point x="289" y="415" type="curve" smooth="yes"/>
      <point x="305" y="415"/>
      <point x="320" y="410"/>
      <point x="328" y="402" type="curve" smooth="yes"/>
      <point x="334" y="396"/>
      <point x="335" y="389"/>
      <point x="335" y="373" type="curve" smooth="yes"/>
    </contour>
  </outline>
</glyph>
<glyph name="uni0437.bgr" format="2">
  <advance width="458"/>
  <outline>
    <contour>
      <point x="186" y="-196" type="curve" smooth="yes"/>
      <point x="146" y="-196"/>
      <point x="133.614953231" y="-170.351308354"/>
      <point x="106" y="-131" type="curve" smooth="yes"/>
      <point x="66" y="-74" type="line"/>
      <point x="58" y="-74" type="line"/>
      <point x="-2" y="-125" type="line" smooth="yes"/>
      <point x="-14" y="-135"/>
      <point x="-16" y="-141"/>
      <point x="-16" y="-152" type="curve" smooth="yes"/>
      <point x="-16" y="-162"/>
      <point x="-11" y="-173"/>
      <point x="1" y="-187" type="curve" smooth="yes"/>
      <point x="33.2358844808" y="-224.272741431"/>
      <point x="96" y="-240"/>
      <point x="180" y="-240" type="curve" smooth="yes"/>
      <point x="372" y="-240"/>
      <point x="448.0" y="-140.0"/>
      <point x="448" y="-36" type="curve" smooth="yes"/>
      <point x="448" y="48"/>
      <point x="363" y="137"/>
      <point x="208" y="141" type="curve"/>
      <point x="209" y="134" type="line"/>
      <point x="332" y="151"/>
      <point x="416.0" y="216.0"/>
      <point x="416" y="316" type="curve" smooth="yes"/>
      <point x="416" y="426"/>
      <point x="312" y="470"/>
      <point x="199" y="470" type="curve" smooth="yes"/>
      <point x="147" y="470"/>
      <point x="80" y="464"/>
      <point x="39" y="442" type="curve"/>
      <point x="39" y="297" type="line"/>
      <point x="55" y="297" type="line"/>
      <point x="90" y="360" type="line" smooth="yes"/>
      <point x="115" y="404"/>
      <point x="138" y="421"/>
      <point x="172" y="421" type="curve" smooth="yes"/>
      <point x="224" y="421"/>
      <point x="241" y="369"/>
      <point x="241" y="300" type="curve" smooth="yes"/>
      <point x="241" y="213"/>
      <point x="205" y="159"/>
      <point x="139" y="159" type="curve" smooth="yes"/>
      <point x="106" y="159" type="line"/>
      <point x="106" y="109" type="line"/>
      <point x="139" y="109" type="line" smooth="yes"/>
      <point x="222" y="109"/>
      <point x="268" y="63"/>
      <point x="268" y="-48" type="curve" smooth="yes"/>
      <point x="268.0" y="-144.0"/>
      <point x="239" y="-196"/>
    </contour>
  </outline>
</glyph>
<glyph name="uni044C.bgr" format="2">
  <advance width="558"/>
  <outline>
    <contour>
      <point x="89" y="191" type="line" smooth="yes"/>
      <point x="89" y="23"/>
      <point x="202.0769230769231" y="-10.0"/>
      <point x="314" y="-10" type="curve" smooth="yes"/>
      <point x="461.1363636363636" y="-10.0"/>
      <point x="548.0" y="40.61184210526315"/>
      <point x="548" y="147" type="curve" smooth="yes"/>
      <point x="548.0" y="248.2173913043478"/>
      <point x="450.0" y="291"/>
      <point x="284" y="291" type="curve" smooth="yes"/>
      <point x="156" y="291" type="line"/>
      <point x="156" y="246" type="line"/>
      <point x="269" y="246" type="line" smooth="yes"/>
      <point x="332.0" y="246"/>
      <point x="368.0" y="204.8918918918919"/>
      <point x="368" y="129" type="curve" smooth="yes"/>
      <point x="368.0" y="69.85393258426967"/>
      <point x="353.20754716981133" y="35.0"/>
      <point x="319" y="35" type="curve" smooth="yes"/>
      <point x="277.69565217391306" y="35.0"/>
      <point x="269" y="74.0"/>
      <point x="269" y="130" type="curve" smooth="yes"/>
      <point x="269" y="460" type="line"/>
      <point x="20" y="460" type="line"/>
      <point x="20" y="444" type="line"/>
      <point x="89" y="412" type="line"/>
    </contour>
  </outline>
</glyph>
<glyph name="uni0463.sc" format="2">
  <advance width="756.0"/>
  <outline>
    <contour>
      <point x="495" y="0" type="line" smooth="yes"/>
      <point x="632" y="0"/>
      <point x="741.0" y="54.0"/>
      <point x="741" y="147" type="curve" smooth="yes"/>
      <point x="741.0" y="236.0"/>
      <point x="638" y="283"/>
      <point x="495" y="283" type="curve" smooth="yes"/>
      <point x="305" y="283" type="line"/>
      <point x="305" y="233" type="line"/>
      <point x="415" y="233" type="line" smooth="yes"/>
      <point x="499.0" y="233"/>
      <point x="546.0" y="206.0"/>
      <point x="546" y="146" type="curve" smooth="yes"/>
      <point x="546.0" y="86.0"/>
      <point x="497.0" y="50"/>
      <point x="415" y="50" type="curve" smooth="yes"/>
      <point x="300" y="50" type="line"/>
      <point x="300" y="0" type="line"/>
    </contour>
    <contour>
      <point x="468" y="560" type="line"/>
      <point x="133" y="560" type="line"/>
      <point x="133" y="544" type="line"/>
      <point x="209" y="511" type="line"/>
      <point x="209" y="49" type="line"/>
      <point x="133" y="16" type="line"/>
      <point x="133" y="0" type="line"/>
      <point x="394" y="0" type="line"/>
      <point x="394" y="511" type="line"/>
      <point x="468" y="544" type="line"/>
    </contour>
    <contour>
      <point x="478" y="419" type="line"/>
      <point x="558" y="313" type="line"/>
      <point x="573" y="313" type="line"/>
      <point x="573" y="471" type="line"/>
      <point x="30" y="471" type="line"/>
      <point x="30" y="313" type="line"/>
      <point x="46" y="313" type="line"/>
      <point x="125" y="419" type="line"/>
    </contour>
  </outline>
</glyph>
<glyph name="uni0491.sc" format="2">
  <advance width="520"/>
  <outline>
    <contour>
      <point x="30" y="0" type="line"/>
      <point x="357" y="0" type="line"/>
      <point x="357" y="16" type="line"/>
      <point x="291" y="49" type="line"/>
      <point x="291" y="560" type="line"/>
      <point x="30" y="560" type="line"/>
      <point x="30" y="544" type="line"/>
      <point x="106" y="511" type="line"/>
      <point x="106" y="49" type="line"/>
      <point x="30" y="16" type="line"/>
    </contour>
    <contour>
      <point x="425" y="560" type="line"/>
      <point x="185" y="560" type="line"/>
      <point x="172" y="508" type="line"/>
      <point x="520" y="508" type="line"/>
      <point x="520" y="712" type="line"/>
      <point x="505" y="712" type="line"/>
    </contour>
  </outline>
</glyph>
